Op deze DVD staan 63 soorten tuinvogels.

Dutch spoken,
63 dif birds around the home.

------------------------ Dutch Friends ------------------------
---------------------------------------------------------------
- Bezoek ook eens mijn vrienden op:  http://www.Film-Test.nl --
----- voor mijn Nederlandse Sync. ondertitels ---- en meer ----
------- http://www.Film-Test.nl ---- voor Films en meer -------
---------------------------------------------------------------

General:

Complete name                    : VIDEO_TS\VTS_04_1.VOB
Format                           : MPEG-PS
File size                        : 53.5 MiB
Duration                         : 1mn 23s
Overall bit rate                 : 5 374 Kbps

Video:

Format                           : MPEG Video
Format version                   : Version 2
Format profile                   : Main@Main
Format settings, BVOP            : Yes
Format settings, Matrix          : Default
Duration                         : 1mn 23s
Bit rate mode                    : Variable
Bit rate                         : 3 731 Kbps
Nominal bit rate                 : 7 000 Kbps
Width                            : 720 pixels
Height                           : 576 pixels
Display aspect ratio             : 4:3
Frame rate                       : 25.000 fps
Standard                         : PAL
Color space                      : YUV
Chroma subsampling               : 4:2:0
Bit depth                        : 8 bits
Scan type                        : Interlaced
Scan order                       : Bottom Field First
Compression mode                 : Lossy
Bits/(Pixel*Frame)               : 0.360
Stream size                      : 37.1 MiB (69%)

Audio:

Format                           : PCM
Format settings, Endianness      : Big
Format settings, Sign            : Signed
Muxing mode                      : DVD-Video
Duration                         : 1mn 23s
Bit rate mode                    : Constant
Bit rate                         : 1 536 Kbps
Channel(s)                       : 2 channels
Channel positions                : Front: L R
Sampling rate                    : 48.0 KHz
Bit depth                        : 16 bits
Stream size                      : 15.3 MiB (29%)

Text:

Format                           : RLE
Format/Info                      : Run-length encoding
Muxing mode                      : DVD-Video
Delay relative to video          : 3s 20ms

Menu